<svg width="20" height="20" viewBox="0 0 20 20" fill="none" xmlns="http://www.w3.org/2000/svg">
<g clip-path="url(#clip0)">
<path d="M19.9895 10.1871C19.9895 9.36773 19.9214 8.7698 19.7742 8.14972H10.1992V11.848H15.8195C15.7062 12.7671 15.0944 14.1512 13.7346 15.0813L13.7155 15.2051L16.7429 17.497L16.9527 17.5174C18.879 15.7789 19.9895 13.2211 19.9895 10.1871Z" fill="#4285F4"/>
<path d="M10.1998 19.9313C12.9532 19.9313 15.2648 19.0454 16.9532 17.5174L13.7351 15.0813C12.8739 15.6682 11.7181 16.0779 10.1998 16.0779C7.50292 16.0779 5.21401 14.3395 4.39808 11.9366L4.27848 11.9466L1.13052 14.3272L1.08935 14.4391C2.76637 17.6945 6.2111 19.9313 10.1998 19.9313Z" fill="#34A853"/>
<path d="M4.39801 11.9366C4.18272 11.3166 4.05812 10.6521 4.05812 9.96565C4.05812 9.27909 4.18272 8.61473 4.38668 7.99466L4.38098 7.8626L1.19357 5.44366L1.08929 5.49214C0.398107 6.84305 0.00150681 8.36008 0.00150681 9.96565C0.00150681 11.5712 0.398107 13.0882 1.08929 14.4391L4.39801 11.9366Z" fill="#FBBC05"/>
<path d="M10.1997 3.85336C12.1147 3.85336 13.4064 4.66168 14.143 5.33717L17.0211 2.59107C15.2535 0.985495 12.9532 0 10.1997 0C6.21109 0 2.76637 2.23672 1.08935 5.49213L4.38675 7.99465C5.214 5.59183 7.50291 3.85336 10.1997 3.85336Z" fill="#EB4335"/>
</g>
<defs>
<clipPath id="clip0">
<rect width="20" height="20" fill="white"/>
</clipPath>
</defs>
</svg>
