<svg width="20" height="20" viewBox="0 0 20 20" fill="none" xmlns="http://www.w3.org/2000/svg">
<path d="M9.99 0C4.47 0 0 4.48 0 10C0 15.52 4.47 20 9.99 20C15.52 20 20 15.52 20 10C20 4.48 15.52 0 9.99 0ZM10 18C5.58 18 2 14.42 2 10C2 5.58 5.58 2 10 2C14.42 2 18 5.58 18 10C18 14.42 14.42 18 10 18ZM10 14C9.27 14 8.62 13.82 8.04 13.48C7.92 13.62 7.18 14.46 7.03 14.63C7.89 15.18 8.9 15.5 10 15.5C11.11 15.5 12.12 15.17 12.98 14.62C12.01 13.53 12.97 14.6 11.97 13.47C11.38 13.82 10.73 14 10 14Z" fill="black"/>
</svg>
