<svg width="41" height="40" viewBox="0 0 41 40" fill="none" xmlns="http://www.w3.org/2000/svg">
<path d="M29.8041 35.973C29.0007 37.8623 26.5556 38.7113 24.3688 37.6387C15.8006 33.4369 9.20768 27.5853 5.32365 19.9905C4.22076 17.8365 5.54922 15.6489 7.82827 15.2122L8.44736 15.0925L8.90665 16.1863L8.91532 16.2042C12.4928 23.8684 19.5847 30.4904 28.4959 34.2799L30.2135 35.0102L29.8041 35.973ZM30.9465 33.2866L39.0079 14.3295C39.9118 12.2038 37.6573 9.80661 35.1663 10.2489L31.1164 10.9675L31.1179 10.9641C31.3125 10.5065 31.2913 9.97927 31.0591 9.49843C30.8269 9.0176 30.4026 8.62252 29.8796 8.40012C29.3566 8.17772 28.7778 8.14622 28.2704 8.31253C27.763 8.47885 27.3686 8.82937 27.174 9.28698L25.7051 12.7412C25.61 12.9592 25.4238 13.1279 25.1842 13.2133C24.9445 13.2986 24.6692 13.2943 24.4141 13.2011C24.159 13.1079 23.9431 12.9328 23.8101 12.7112C23.6771 12.4897 23.6369 12.2383 23.6977 12.0078L24.1086 11.0416C24.3032 10.584 24.2821 10.0568 24.0499 9.57595C23.8176 9.09511 23.3934 8.70004 22.8704 8.47764C22.3474 8.25524 21.7685 8.22373 21.2611 8.39005C20.7537 8.55637 20.3593 8.90689 20.1647 9.36449L18.5226 13.226C16.4519 13.578 13.2616 14.1753 10.4653 14.7057L10.8473 15.62C14.1882 22.7617 20.8304 28.9847 29.2309 32.557L30.9465 33.2866ZM24.5815 24.9933C24.6537 24.824 24.7633 24.6725 24.904 24.5477C25.0447 24.4228 25.2138 24.3269 25.4017 24.2654C25.5895 24.204 25.7925 24.1782 25.9989 24.1896C26.2053 24.2009 26.4111 24.2492 26.6046 24.3316C26.7982 24.4141 26.9756 24.529 27.1268 24.67C27.2779 24.8109 27.3999 24.9751 27.4858 25.1531C27.5716 25.3311 27.6196 25.5195 27.627 25.7075C27.6343 25.8954 27.601 26.0793 27.5289 26.2487C27.3834 26.5907 27.0886 26.8527 26.7093 26.977C26.33 27.1014 25.8973 27.0778 25.5064 26.9116C25.1154 26.7453 24.7983 26.45 24.6247 26.0906C24.4511 25.7312 24.4353 25.3371 24.5808 24.995L24.5815 24.9933ZM20.1824 19.0477C20.3279 18.7057 20.6227 18.4437 21.002 18.3194C21.3813 18.195 21.814 18.2186 22.2049 18.3848C22.5959 18.5511 22.913 18.8464 23.0866 19.2058C23.2602 19.5652 23.276 19.9593 23.1305 20.3014C22.985 20.6435 22.6902 20.9055 22.311 21.0298C21.9317 21.1541 21.499 21.1306 21.108 20.9643C20.7171 20.7981 20.3999 20.5028 20.2264 20.1433C20.0528 19.7839 20.037 19.3898 20.1824 19.0477ZM27.869 17.2188C28.0152 16.8749 28.3116 16.6115 28.6929 16.4865C29.0742 16.3615 29.5093 16.3852 29.9023 16.5523C30.2953 16.7194 30.6142 17.0163 30.7887 17.3777C30.9632 17.739 30.9791 18.1352 30.8328 18.4791C30.6866 18.823 30.3902 19.0864 30.0089 19.2114C29.6276 19.3364 29.1925 19.3127 28.7995 19.1456C28.4065 18.9785 28.0876 18.6816 27.9131 18.3202C27.7386 17.9589 27.7227 17.5627 27.869 17.2188Z" fill="#04ADBF"/>
</svg>
