<?xml version="1.0" encoding="iso-8859-1"?>
<!-- Generator: Adobe Illustrator 19.0.0, SVG Export Plug-In . SVG Version: 6.00 Build 0)  -->
<svg version="1.1" id="Layer_1" xmlns="http://www.w3.org/2000/svg" xmlns:xlink="http://www.w3.org/1999/xlink" x="0px" y="0px"
	 viewBox="0 0 511.999 511.999" style="enable-background:new 0 0 511.999 511.999;" xml:space="preserve">
<g>
	<g>
		<g>
			<path d="M216.737,129.673c-27.157,0-49.252,22.095-49.252,49.252s22.095,49.252,49.252,49.252
				c27.157-0.001,49.252-22.095,49.252-49.252S243.894,129.673,216.737,129.673z M216.737,197.098
				c-10.021-0.001-18.174-8.153-18.174-18.173s8.153-18.172,18.174-18.172c10.021,0,18.173,8.153,18.173,18.172
				C234.91,188.945,226.757,197.098,216.737,197.098z"/>
			<path d="M451.791,53.206l-11.643-6.957c-1.789-1.069-44.586-26.333-111.257-39.09c-39.12-7.486-78.464-9.11-116.938-4.827
				c-48.119,5.356-94.939,20.005-139.159,43.539l-12.586,6.698l195.927,459.431l143.401-336.262l0.033-0.02l23.008-53.983
				l-0.009-0.005L451.791,53.206z M320.396,282.089c-8.157-15.96-24.756-26.92-43.875-26.92c-27.157,0-49.252,22.095-49.252,49.252
				s22.095,49.252,49.252,49.252c4.953,0,9.735-0.743,14.248-2.109l-34.634,81.21L129.115,134.922
				c56.019-28.647,115.865-37.29,177.967-25.667c4.052,0.758,7.976,1.588,11.783,2.464c-2.658,6.4-4.067,13.343-4.067,20.503
				c0,27.247,20.52,49.777,46.915,52.986L320.396,282.089z M294.694,304.42c0,10.021-8.153,18.174-18.174,18.174
				s-18.174-8.153-18.174-18.174c0-10.021,8.153-18.173,18.174-18.173C286.542,286.248,294.694,294.4,294.694,304.42z
				 M375.286,153.377c-2.275,0.763-4.672,1.159-7.095,1.159c-12.305,0-22.315-10.011-22.315-22.316c0-4.24,1.185-8.3,3.368-11.791
				c16.504,5.705,28.315,11.437,33.957,14.39L375.286,153.377z M395.429,106.142c-8.742-4.456-24.826-11.86-46.506-18.527
				l-7.493-2.314l-0.098,0.078c-8.386-2.359-17.487-4.562-27.231-6.427c-47.615-9.11-119.933-11.503-197.206,27.317l-16.812-39.424
				c69.991-34.026,144.528-43.917,221.779-29.389c41.962,7.891,74.056,21.378,90.385,29.252L395.429,106.142z"/>
			<rect x="267.78" y="118.852" width="24.107" height="24.107"/>
			<rect x="291.886" y="200.578" width="24.107" height="24.107"/>
			<rect x="200.05" y="242.274" width="24.107" height="24.107"/>
			<rect x="244.088" y="361.666" width="24.107" height="24.107"/>
		</g>
	</g>
</g>
<g>
</g>
<g>
</g>
<g>
</g>
<g>
</g>
<g>
</g>
<g>
</g>
<g>
</g>
<g>
</g>
<g>
</g>
<g>
</g>
<g>
</g>
<g>
</g>
<g>
</g>
<g>
</g>
<g>
</g>
</svg>
