<svg width="28" height="28" viewBox="0 0 28 28" fill="none" xmlns="http://www.w3.org/2000/svg">
<path fill-rule="evenodd" clip-rule="evenodd" d="M18.75 10C18.75 11.3261 18.2232 12.5979 17.2855 13.5356C16.3479 14.4732 15.0761 15 13.75 15C12.4239 15 11.1521 14.4732 10.2145 13.5356C9.27678 12.5979 8.75 11.3261 8.75 10C8.75 8.67395 9.27678 7.40218 10.2145 6.4645C11.1521 5.52681 12.4239 5.00003 13.75 5.00003C15.0761 5.00003 16.3479 5.52681 17.2855 6.4645C18.2232 7.40218 18.75 8.67395 18.75 10ZM16.25 10C16.25 10.6631 15.9866 11.299 15.5178 11.7678C15.0489 12.2366 14.413 12.5 13.75 12.5C13.087 12.5 12.4511 12.2366 11.9822 11.7678C11.5134 11.299 11.25 10.6631 11.25 10C11.25 9.33699 11.5134 8.7011 11.9822 8.23226C12.4511 7.76342 13.087 7.50003 13.75 7.50003C14.413 7.50003 15.0489 7.76342 15.5178 8.23226C15.9866 8.7011 16.25 9.33699 16.25 10Z" fill="#04ADBF"/>
<path fill-rule="evenodd" clip-rule="evenodd" d="M13.75 3.05176e-05C6.15625 3.05176e-05 0 6.15628 0 13.75C0 21.3438 6.15625 27.5 13.75 27.5C21.3438 27.5 27.5 21.3438 27.5 13.75C27.5 6.15628 21.3438 3.05176e-05 13.75 3.05176e-05ZM2.5 13.75C2.5 16.3625 3.39125 18.7675 4.885 20.6775C5.93404 19.2999 7.28737 18.1835 8.83929 17.4154C10.3912 16.6474 12.0997 16.2485 13.8312 16.25C15.5404 16.2484 17.2274 16.6369 18.7637 17.386C20.2999 18.1351 21.645 19.2249 22.6962 20.5725C23.7793 19.152 24.5085 17.4941 24.8236 15.7358C25.1387 13.9775 25.0305 12.1694 24.5081 10.4613C23.9857 8.75307 23.064 7.19384 21.8194 5.91258C20.5747 4.63131 19.0428 3.66486 17.3505 3.09317C15.6581 2.52148 13.854 2.361 12.0873 2.625C10.3207 2.889 8.64224 3.56989 7.19096 4.61135C5.73968 5.6528 4.55726 7.02487 3.74154 8.61403C2.92581 10.2032 2.50023 11.9637 2.5 13.75ZM13.75 25C11.1674 25.0039 8.66283 24.1155 6.66 22.485C7.46616 21.3309 8.53917 20.3887 9.78774 19.7384C11.0363 19.0881 12.4235 18.749 13.8312 18.75C15.2215 18.7489 16.5919 19.0795 17.8287 19.7143C19.0655 20.3491 20.133 21.2699 20.9425 22.4C18.9241 24.0834 16.3782 25.0037 13.75 25Z" fill="#04ADBF"/>
</svg>
