<svg width="118" height="25" viewBox="0 0 118 25" fill="none" xmlns="http://www.w3.org/2000/svg">
<path opacity="0.6" d="M5.7227 8.22493H7.3867V14.4969H8.9387V15.8249H7.3867V18.3049H5.8347V15.8249H1.0827V14.7849L5.7227 8.22493ZM5.0667 11.3929L2.8587 14.4969H5.8347V11.5049L5.9307 9.88893H5.8987L5.0667 11.3929ZM9.9697 17.3449C9.9697 17.0356 10.0764 16.7796 10.2897 16.5769C10.503 16.3636 10.7537 16.2569 11.0417 16.2569C11.3297 16.2569 11.575 16.3636 11.7777 16.5769C11.991 16.7796 12.0977 17.0356 12.0977 17.3449C12.0977 17.6863 11.991 17.9583 11.7777 18.1609C11.575 18.3636 11.3297 18.4649 11.0417 18.4649C10.7537 18.4649 10.503 18.3636 10.2897 18.1609C10.0764 17.9583 9.9697 17.6863 9.9697 17.3449ZM17.4343 8.06493C18.0103 8.06493 18.5383 8.16626 19.0183 8.36893C19.509 8.56093 19.9303 8.87026 20.2823 9.29693C20.6343 9.71293 20.9117 10.2516 21.1143 10.9129C21.317 11.5636 21.4183 12.3476 21.4183 13.2649C21.4183 14.1823 21.3063 14.9663 21.0823 15.6169C20.869 16.2676 20.5757 16.8063 20.2023 17.2329C19.8397 17.6596 19.4183 17.9743 18.9383 18.1769C18.4583 18.3689 17.9517 18.4649 17.4183 18.4649C16.8423 18.4649 16.309 18.3689 15.8183 18.1769C15.3383 17.9743 14.917 17.6649 14.5543 17.2489C14.2023 16.8223 13.925 16.2836 13.7223 15.6329C13.5197 14.9716 13.4183 14.1823 13.4183 13.2649C13.4183 12.3903 13.525 11.6276 13.7383 10.9769C13.9623 10.3156 14.2557 9.7716 14.6183 9.34493C14.9917 8.91826 15.4183 8.59826 15.8983 8.38493C16.389 8.1716 16.901 8.06493 17.4343 8.06493ZM15.1303 13.2649C15.1303 14.0649 15.1943 14.7209 15.3223 15.2329C15.4503 15.7343 15.621 16.1343 15.8343 16.4329C16.0477 16.7209 16.293 16.9236 16.5703 17.0409C16.8477 17.1476 17.1357 17.2009 17.4343 17.2009C17.733 17.2009 18.021 17.1423 18.2983 17.0249C18.5757 16.8969 18.8157 16.6836 19.0183 16.3849C19.2317 16.0863 19.397 15.6863 19.5143 15.1849C19.6423 14.6729 19.7063 14.0329 19.7063 13.2649C19.7063 12.4649 19.6423 11.8143 19.5143 11.3129C19.3863 10.8009 19.2157 10.4009 19.0023 10.1129C18.7997 9.81426 18.5597 9.6116 18.2823 9.50493C18.005 9.3876 17.717 9.32893 17.4183 9.32893C17.1197 9.32893 16.8317 9.39293 16.5543 9.52093C16.277 9.63826 16.0317 9.84626 15.8183 10.1449C15.6157 10.4436 15.4503 10.8489 15.3223 11.3609C15.1943 11.8623 15.1303 12.4969 15.1303 13.2649Z" fill="#1A1C20"/>
<path d="M46.6752 7.84717C46.7453 7.73583 46.8899 7.66534 47.0482 7.66534C47.2066 7.66532 47.3512 7.73581 47.4213 7.84715L49.0439 10.4249C49.1965 10.6673 49.4914 10.8353 49.8325 10.8742L53.4604 11.2877C53.6171 11.3056 53.7473 11.3916 53.7962 11.5097C53.8451 11.6278 53.8044 11.7575 53.691 11.8441L51.066 13.8508C50.8192 14.0396 50.7065 14.3114 50.7648 14.5778L51.3841 17.4107C51.4109 17.5331 51.3467 17.6568 51.2186 17.7297C51.0905 17.8027 50.9207 17.8123 50.7806 17.7545L47.5356 16.4171C47.2305 16.2913 46.866 16.2913 46.5608 16.4171L43.3162 17.7545C43.176 17.8123 43.0062 17.8026 42.8781 17.7297C42.75 17.6567 42.6859 17.533 42.7126 17.4106L43.3323 14.5779C43.3906 14.3114 43.2779 14.0396 43.031 13.8508L40.4059 11.8442C40.2925 11.7575 40.2517 11.6278 40.3006 11.5098C40.3496 11.3917 40.4798 11.3056 40.6365 11.2877L44.2642 10.8742C44.6054 10.8353 44.9003 10.6673 45.0529 10.4249L46.6752 7.84717Z" fill="white"/>
<path d="M62.472 7.75961C62.5398 7.64733 62.6829 7.57488 62.8412 7.57271C62.9995 7.57052 63.1456 7.63902 63.2179 7.74938L64.8933 10.3046C65.0508 10.5448 65.3492 10.7088 65.6911 10.743L69.3269 11.1068C69.484 11.1225 69.6159 11.2068 69.6673 11.3242C69.7186 11.4416 69.6805 11.5718 69.5689 11.66L66.9856 13.7024C66.7426 13.8944 66.6356 14.1678 66.6993 14.4333L67.3768 17.2574C67.4061 17.3794 67.3445 17.5039 67.2179 17.5786C67.0913 17.6534 66.9217 17.6653 66.7804 17.6094L63.5084 16.3165C63.2008 16.195 62.8363 16.2 62.5338 16.3299L59.3171 17.7116C59.1781 17.7713 59.0081 17.7639 58.8785 17.6927C58.7489 17.6215 58.6823 17.4987 58.7065 17.376L59.2679 14.5352C59.3207 14.268 59.2024 13.9976 58.9517 13.8123L56.2857 11.8419C56.1706 11.7567 56.1271 11.6277 56.1736 11.5089C56.2201 11.3902 56.3485 11.3024 56.5048 11.2824L60.1236 10.8192C60.4639 10.7757 60.7553 10.6036 60.9029 10.3592L62.472 7.75961Z" fill="white"/>
<path d="M78.2649 7.75937C78.3327 7.64709 78.4758 7.57463 78.6342 7.57246C78.7925 7.57028 78.9385 7.63877 79.0109 7.74914L80.6863 10.3043C80.8438 10.5446 81.1421 10.7085 81.484 10.7427L85.1199 11.1066C85.2769 11.1223 85.4088 11.2065 85.4602 11.324C85.5115 11.4414 85.4735 11.5715 85.3619 11.6598L82.7785 13.7021C82.5356 13.8942 82.4286 14.1675 82.4923 14.4331L83.1698 17.2572C83.199 17.3792 83.1374 17.5037 83.0108 17.5784C82.8843 17.6531 82.7147 17.665 82.5733 17.6092L79.3014 16.3163C78.9937 16.1947 78.6293 16.1997 78.3267 16.3297L75.11 17.7113C74.9711 17.771 74.8011 17.7637 74.6715 17.6925C74.5419 17.6213 74.4752 17.4984 74.4995 17.3758L75.0608 14.535C75.1136 14.2677 74.9954 13.9974 74.7447 13.812L72.0787 11.8416C71.9636 11.7565 71.9201 11.6274 71.9666 11.5087C72.0131 11.39 72.1415 11.3021 72.2978 11.2821L75.9165 10.819C76.2568 10.7754 76.5483 10.6034 76.6958 10.3589L78.2649 7.75937Z" fill="white"/>
<path d="M94.0579 7.75937C94.1257 7.64709 94.2688 7.57463 94.4272 7.57246C94.5855 7.57028 94.7315 7.63877 94.8039 7.74914L96.4793 10.3043C96.6368 10.5446 96.9351 10.7085 97.277 10.7427L100.913 11.1066C101.07 11.1223 101.202 11.2065 101.253 11.324C101.305 11.4414 101.266 11.5715 101.155 11.6598L98.5715 13.7021C98.3286 13.8942 98.2216 14.1675 98.2853 14.4331L98.9628 17.2572C98.992 17.3792 98.9304 17.5037 98.8038 17.5784C98.6773 17.6531 98.5077 17.665 98.3663 17.6092L95.0944 16.3163C94.7867 16.1947 94.4222 16.1997 94.1197 16.3297L90.903 17.7113C90.7641 17.771 90.594 17.7637 90.4645 17.6925C90.3349 17.6213 90.2682 17.4984 90.2925 17.3758L90.8538 14.535C90.9066 14.2677 90.7884 13.9974 90.5377 13.812L87.8717 11.8416C87.7565 11.7565 87.713 11.6274 87.7595 11.5087C87.806 11.39 87.9344 11.3021 88.0907 11.2821L91.7095 10.819C92.0498 10.7754 92.3412 10.6034 92.4888 10.3589L94.0579 7.75937Z" fill="white"/>
<path opacity="0.4" d="M109.851 7.75937C109.919 7.64709 110.062 7.57463 110.221 7.57246C110.379 7.57028 110.525 7.63877 110.597 7.74914L112.273 10.3043C112.43 10.5446 112.729 10.7085 113.07 10.7427L116.706 11.1066C116.863 11.1223 116.995 11.2065 117.047 11.324C117.098 11.4414 117.06 11.5715 116.948 11.6598L114.365 13.7021C114.122 13.8942 114.015 14.1675 114.079 14.4331L114.756 17.2572C114.785 17.3792 114.724 17.5037 114.597 17.5784C114.471 17.6531 114.301 17.665 114.16 17.6092L110.888 16.3163C110.58 16.1947 110.216 16.1997 109.913 16.3297L106.696 17.7113C106.558 17.771 106.388 17.7637 106.258 17.6925C106.128 17.6213 106.062 17.4984 106.086 17.3758L106.647 14.535C106.7 14.2677 106.582 13.9974 106.331 13.812L103.665 11.8416C103.55 11.7565 103.506 11.6274 103.553 11.5087C103.6 11.39 103.728 11.3021 103.884 11.2821L107.503 10.819C107.843 10.7754 108.135 10.6034 108.282 10.3589L109.851 7.75937Z" fill="white"/>
</svg>
