<svg width="95" height="27" viewBox="0 0 95 27" fill="none" xmlns="http://www.w3.org/2000/svg">
<path opacity="0.6" d="M4.96 7.92003H6.624V14.192H8.176V15.52H6.624V18H5.072V15.52H0.32V14.48L4.96 7.92003ZM4.304 11.088L2.096 14.192H5.072V11.2L5.168 9.58403H5.136L4.304 11.088ZM9.207 17.04C9.207 16.7307 9.31367 16.4747 9.527 16.272C9.74033 16.0587 9.991 15.952 10.279 15.952C10.567 15.952 10.8123 16.0587 11.015 16.272C11.2283 16.4747 11.335 16.7307 11.335 17.04C11.335 17.3814 11.2283 17.6534 11.015 17.856C10.8123 18.0587 10.567 18.16 10.279 18.16C9.991 18.16 9.74033 18.0587 9.527 17.856C9.31367 17.6534 9.207 17.3814 9.207 17.04ZM16.6716 7.76003C17.2476 7.76003 17.7756 7.86136 18.2556 8.06403C18.7463 8.25603 19.1676 8.56536 19.5196 8.99203C19.8716 9.40803 20.149 9.9467 20.3516 10.608C20.5543 11.2587 20.6556 12.0427 20.6556 12.96C20.6556 13.8774 20.5436 14.6614 20.3196 15.312C20.1063 15.9627 19.813 16.5014 19.4396 16.928C19.077 17.3547 18.6556 17.6694 18.1756 17.872C17.6956 18.064 17.189 18.16 16.6556 18.16C16.0796 18.16 15.5463 18.064 15.0556 17.872C14.5756 17.6694 14.1543 17.36 13.7916 16.944C13.4396 16.5174 13.1623 15.9787 12.9596 15.328C12.757 14.6667 12.6556 13.8774 12.6556 12.96C12.6556 12.0854 12.7623 11.3227 12.9756 10.672C13.1996 10.0107 13.493 9.4667 13.8556 9.04003C14.229 8.61336 14.6556 8.29336 15.1356 8.08003C15.6263 7.8667 16.1383 7.76003 16.6716 7.76003ZM14.3676 12.96C14.3676 13.76 14.4316 14.416 14.5596 14.928C14.6876 15.4294 14.8583 15.8294 15.0716 16.128C15.285 16.416 15.5303 16.6187 15.8076 16.736C16.085 16.8427 16.373 16.896 16.6716 16.896C16.9703 16.896 17.2583 16.8374 17.5356 16.72C17.813 16.592 18.053 16.3787 18.2556 16.08C18.469 15.7814 18.6343 15.3814 18.7516 14.88C18.8796 14.368 18.9436 13.728 18.9436 12.96C18.9436 12.16 18.8796 11.5094 18.7516 11.008C18.6236 10.496 18.453 10.096 18.2396 9.80803C18.037 9.50936 17.797 9.3067 17.5196 9.20003C17.2423 9.0827 16.9543 9.02403 16.6556 9.02403C16.357 9.02403 16.069 9.08803 15.7916 9.21603C15.5143 9.33336 15.269 9.54136 15.0556 9.84003C14.853 10.1387 14.6876 10.544 14.5596 11.056C14.4316 11.5574 14.3676 12.192 14.3676 12.96Z" fill="#1A1C20"/>
<path d="M32.6062 7.39904C32.6682 7.2781 32.7961 7.20154 32.9362 7.20154C33.0763 7.20151 33.2042 7.27808 33.2663 7.39902L34.7019 10.1991C34.8369 10.4623 35.0978 10.6449 35.3996 10.6871L38.6094 11.1363C38.748 11.1557 38.8632 11.2492 38.9065 11.3775C38.9498 11.5057 38.9137 11.6466 38.8134 11.7407L36.4909 13.9205C36.2726 14.1255 36.1729 14.4207 36.2244 14.7101L36.7724 17.7874C36.7961 17.9203 36.7393 18.0546 36.626 18.1338C36.5126 18.2132 36.3624 18.2236 36.2384 18.1608L33.3674 16.708C33.0975 16.5714 32.775 16.5714 32.505 16.708L29.6343 18.1608C29.5103 18.2236 29.36 18.2131 29.2467 18.1338C29.1333 18.0545 29.0766 17.9202 29.1003 17.7873L29.6485 14.7103C29.7001 14.4208 29.6004 14.1255 29.382 13.9204L27.0594 11.7407C26.9591 11.6466 26.923 11.5058 26.9663 11.3775C27.0096 11.2492 27.1247 11.1558 27.2634 11.1363L30.4731 10.6871C30.7749 10.6449 31.0358 10.4624 31.1708 10.199L32.6062 7.39904Z" fill="#FA9F16"/>
<path d="M46.5821 7.30394C46.642 7.18197 46.7687 7.10327 46.9087 7.10091C47.0488 7.09854 47.178 7.17294 47.2421 7.29282L48.7243 10.0683C48.8637 10.3293 49.1277 10.5074 49.4301 10.5446L52.647 10.9398C52.7859 10.9569 52.9027 11.0484 52.9481 11.1759C52.9935 11.3034 52.9598 11.4449 52.8611 11.5407L50.5755 13.7592C50.3605 13.9678 50.2659 14.2647 50.3222 14.5532L50.9216 17.6208C50.9475 17.7533 50.893 17.8886 50.781 17.9697C50.669 18.0509 50.519 18.0638 50.3939 18.0032L47.4991 16.5988C47.2269 16.4667 46.9044 16.4721 46.6367 16.6133L43.7908 18.1141C43.6678 18.179 43.5174 18.171 43.4028 18.0936C43.2881 18.0163 43.2291 17.8829 43.2506 17.7496L43.7472 14.6638C43.7939 14.3735 43.6893 14.0799 43.4675 13.8786L41.1088 11.7382C41.0069 11.6458 40.9684 11.5056 41.0096 11.3766C41.0507 11.2476 41.1643 11.1522 41.3026 11.1305L44.5043 10.6274C44.8054 10.5801 45.0632 10.3932 45.1938 10.1277L46.5821 7.30394Z" fill="#FA9F16"/>
<path d="M60.5552 7.30369C60.6152 7.18173 60.7418 7.10302 60.8819 7.10067C61.022 7.09829 61.1512 7.1727 61.2152 7.29258L62.6975 10.0681C62.8369 10.3291 63.1008 10.5072 63.4033 10.5443L66.6201 10.9395C66.7591 10.9566 66.8758 11.0481 66.9213 11.1757C66.9667 11.3032 66.933 11.4446 66.8342 11.5404L64.5486 13.7589C64.3337 13.9675 64.239 14.2645 64.2953 14.5529L64.8948 17.6205C64.9207 17.7531 64.8662 17.8883 64.7542 17.9694C64.6422 18.0507 64.4921 18.0636 64.3671 18.0029L61.4722 16.5985C61.2 16.4665 60.8775 16.4719 60.6099 16.6131L57.7639 18.1139C57.641 18.1787 57.4905 18.1707 57.3759 18.0934C57.2612 18.016 57.2023 17.8826 57.2237 17.7494L57.7204 14.6636C57.7671 14.3733 57.6625 14.0797 57.4406 13.8783L55.0819 11.738C54.98 11.6455 54.9416 11.5053 54.9827 11.3764C55.0238 11.2474 55.1374 11.152 55.2757 11.1302L58.4774 10.6272C58.7785 10.5798 59.0364 10.393 59.1669 10.1274L60.5552 7.30369Z" fill="#FA9F16"/>
<path d="M74.5286 7.30369C74.5886 7.18173 74.7152 7.10302 74.8553 7.10067C74.9954 7.09829 75.1246 7.1727 75.1886 7.29258L76.6709 10.0681C76.8103 10.3291 77.0742 10.5072 77.3767 10.5443L80.5935 10.9395C80.7325 10.9566 80.8492 11.0481 80.8947 11.1757C80.94 11.3032 80.9063 11.4446 80.8076 11.5404L78.522 13.7589C78.3071 13.9675 78.2124 14.2645 78.2687 14.5529L78.8682 17.6205C78.8941 17.7531 78.8395 17.8883 78.7275 17.9694C78.6156 18.0507 78.4655 18.0636 78.3405 18.0029L75.4456 16.5985C75.1734 16.4665 74.8509 16.4719 74.5833 16.6131L71.7373 18.1139C71.6143 18.1787 71.4639 18.1707 71.3493 18.0934C71.2346 18.016 71.1757 17.8826 71.1971 17.7494L71.6937 14.6636C71.7405 14.3733 71.6359 14.0797 71.414 13.8783L69.0553 11.738C68.9534 11.6455 68.9149 11.5053 68.9561 11.3764C68.9972 11.2474 69.1108 11.152 69.2491 11.1302L72.4508 10.6272C72.7519 10.5798 73.0098 10.393 73.1403 10.1274L74.5286 7.30369Z" fill="#FA9F16"/>
<path opacity="0.4" d="M88.5017 7.30369C88.5617 7.18173 88.6883 7.10302 88.8284 7.10067C88.9685 7.09829 89.0977 7.1727 89.1617 7.29258L90.644 10.0681C90.7834 10.3291 91.0473 10.5072 91.3498 10.5443L94.5667 10.9395C94.7056 10.9566 94.8223 11.0481 94.8678 11.1757C94.9132 11.3032 94.8795 11.4446 94.7808 11.5404L92.4951 13.7589C92.2802 13.9675 92.1855 14.2645 92.2419 14.5529L92.8413 17.6205C92.8672 17.7531 92.8127 17.8883 92.7007 17.9694C92.5887 18.0507 92.4386 18.0636 92.3136 18.0029L89.4187 16.5985C89.1465 16.4665 88.8241 16.4719 88.5564 16.6131L85.7104 18.1139C85.5875 18.1787 85.4371 18.1707 85.3224 18.0934C85.2078 18.016 85.1488 17.8826 85.1702 17.7494L85.6669 14.6636C85.7136 14.3733 85.609 14.0797 85.3872 13.8783L83.0284 11.738C82.9266 11.6455 82.8881 11.5053 82.9292 11.3764C82.9704 11.2474 83.084 11.152 83.2223 11.1302L86.424 10.6272C86.7251 10.5798 86.9829 10.393 87.1135 10.1274L88.5017 7.30369Z" fill="#FA9F16"/>
</svg>
